<?xml version="1.0"?><svg xmlns="http://www.w3.org/2000/svg"  viewBox="0 0 24 24" width="24px" height="24px">    <path d="M 12 2 A 2 2 0 0 0 10 4 A 2 2 0 0 0 12 6 A 2 2 0 0 0 14 4 A 2 2 0 0 0 12 2 z M 11.894531 7.0019531 C 10.289494 7.057584 9 8.38125 9 10 L 9 15 L 9 16 L 9 18.728516 L 7 22 L 9.3164062 22 L 11 19.271484 L 11 16 L 12.691406 16 L 15 22 L 17.107422 22 L 14.326172 14.837891 L 12.998047 13.976562 C 12.375047 13.572563 12 12.882625 12 12.140625 L 12 10.900391 L 14 12.216797 L 14 12.201172 L 15.802734 13.402344 L 16.447266 13.828125 L 17.554688 12.167969 L 15 10.464844 L 15 10.119141 C 15 8.6681406 14.021656 7.3345937 12.597656 7.0585938 C 12.358281 7.0119688 12.123822 6.9940059 11.894531 7.0019531 z"/></svg>