<?xml version="1.0" encoding="UTF-8"?>
<svg xmlns="http://www.w3.org/2000/svg" xmlns:xlink="http://www.w3.org/1999/xlink" viewBox="0 0 24 24" version="1.1" width="24px" height="24px">
<g id="surface1">
<path style=" " d="M 15.15625 2 C 14.527344 2 11.4375 3.5625 10.375 3.5625 C 10.113281 3.5625 7.234375 3.355469 6.96875 3.4375 C 6.070313 3.714844 3.507813 6.664063 3.09375 7.5 C 2.785156 8.121094 3.480469 10.996094 3.1875 11.625 C 2.902344 12.238281 2.347656 12.660156 2.125 13.34375 C 1.824219 14.269531 2.625 16.863281 2.25 18.1875 C 1.878906 19.507813 2.773438 20.332031 4.125 20.59375 C 4.5625 20.679688 6.628906 21.8125 7.71875 21.8125 C 9.339844 21.8125 10.875 20.640625 12.4375 20.3125 C 12.890625 20.21875 18.199219 19.625 18.65625 18.8125 C 19.160156 17.917969 20.296875 17.832031 20.65625 16.84375 C 20.917969 16.125 20.902344 15.351563 20.8125 14.5625 C 20.722656 13.769531 20.496094 13.394531 20.15625 12.71875 C 19.765625 11.941406 20.203125 11.796875 20.59375 11.1875 C 20.835938 10.808594 20.238281 9.101563 20.0625 8.84375 C 19.933594 8.652344 20.300781 7.375 20.28125 6.96875 C 20.246094 6.207031 19.734375 5.941406 19.125 5.6875 C 18.324219 5.351563 18.109375 5.03125 18.1875 4.21875 C 18.351563 2.480469 15.15625 2 15.15625 2 Z M 14.6875 4.1875 C 14.6875 4.1875 15.632813 4.457031 15.84375 4.53125 C 16.003906 5.074219 16.066406 5.726563 16.03125 6.15625 C 15.996094 6.546875 16.496094 7.8125 16.5 8.21875 C 16.507813 9.179688 15.609375 9.949219 15.9375 10.90625 C 16.226563 11.753906 16.371094 12.433594 15.34375 12.875 C 14.972656 13.035156 13.695313 13.648438 13.1875 13.75 C 12.414063 13.902344 11.679688 14.257813 11.6875 15.125 C 11.691406 15.597656 10.902344 16.894531 10.5 16.9375 C 10.191406 16.972656 9.15625 16.648438 8.875 16.8125 C 7.9375 17.363281 6.359375 18.796875 5.21875 18.09375 C 4.851563 17.867188 4.644531 17.574219 4.4375 17.25 C 4.519531 16.734375 4.066406 13.902344 4.15625 13.625 C 4.199219 13.492188 4.347656 13.296875 4.5 13.09375 C 4.679688 12.851563 4.886719 12.558594 5.0625 12.1875 C 5.476563 11.304688 5.039063 8.285156 5.0625 8.15625 C 5.09375 8.117188 7.199219 5.535156 7.4375 5.5 C 7.597656 5.476563 10.09375 5.625 10.375 5.625 C 11.671875 5.625 14.523438 4.253906 14.6875 4.1875 Z M 12.84375 6.96875 C 12.335938 6.980469 11.632813 7.632813 11.40625 7.78125 C 11.085938 7.992188 10.519531 8.054688 10.25 8.3125 C 9.914063 9.128906 10.441406 9.753906 10.5 10.1875 C 10.585938 10.785156 10.070313 11.953125 11.09375 12 C 11.597656 12.023438 11.875 11.550781 12.1875 11.25 C 12.492188 10.957031 13.910156 10.464844 13.90625 10.15625 C 14.15625 9.675781 13.859375 8.691406 13.625 8.5 C 13.128906 8.09375 13.695313 7.28125 13.0625 7 C 13 6.972656 12.917969 6.96875 12.84375 6.96875 Z M 7.3125 12 C 6.929688 12 6.816406 12.761719 6.71875 12.9375 C 6.613281 13.125 5.621094 13.617188 6.03125 14.125 C 6.765625 15.027344 7.882813 15.601563 8.03125 14.9375 C 8.183594 14.25 9.25 13.78125 8.9375 13.28125 C 8.488281 12.554688 8.011719 12 7.3125 12 Z "/>
</g>
</svg>
