<svg xmlns="http://www.w3.org/2000/svg"  viewBox="0 0 24 24" width="24px" height="24px"><path d="M 2.5 4 C 2.224 4 2 4.224 2 4.5 L 2 5.5 C 2 5.776 2.224 6 2.5 6 L 7.5 6 C 7.776 6 8 5.776 8 5.5 L 8 4.5 C 8 4.224 7.776 4 7.5 4 L 2.5 4 z M 16.5 4 C 16.224 4 16 4.224 16 4.5 L 16 5.5 C 16 5.776 16.224 6 16.5 6 L 21.5 6 C 21.776 6 22 5.776 22 5.5 L 22 4.5 C 22 4.224 21.776 4 21.5 4 L 16.5 4 z M 4 8 L 4 10.271484 A 2 2 0 0 0 3 12 A 2 2 0 0 0 4 13.728516 L 4 16 L 6 16 L 6 13.730469 A 2 2 0 0 0 6.7285156 13 L 17.269531 13 A 2 2 0 0 0 18 13.728516 L 18 16 L 20 16 L 20 13.730469 A 2 2 0 0 0 21 12 A 2 2 0 0 0 20 10.271484 L 20 8 L 18 8 L 18 10.269531 A 2 2 0 0 0 17.271484 11 L 6.7285156 11 A 2 2 0 0 0 6 10.269531 L 6 8 L 4 8 z M 2.5 18 C 2.224 18 2 18.224 2 18.5 L 2 19.5 C 2 19.776 2.224 20 2.5 20 L 7.5 20 C 7.776 20 8 19.776 8 19.5 L 8 18.5 C 8 18.224 7.776 18 7.5 18 L 2.5 18 z M 16.5 18 C 16.224 18 16 18.224 16 18.5 L 16 19.5 C 16 19.776 16.224 20 16.5 20 L 21.5 20 C 21.776 20 22 19.776 22 19.5 L 22 18.5 C 22 18.224 21.776 18 21.5 18 L 16.5 18 z"/></svg>