<svg xmlns="http://www.w3.org/2000/svg"  viewBox="0 0 24 24" width="24px" height="24px"><path d="M 13 2 C 11.894531 2 11 2.894531 11 4 C 11 5.105469 11.894531 6 13 6 C 14.105469 6 15 5.105469 15 4 C 15 2.894531 14.105469 2 13 2 Z M 5.78125 3.96875 C 5.082031 4.042969 4.40625 4.398438 3.90625 5 L 2.59375 6.59375 C 2.09375 7.292969 2.113281 8.3125 2.8125 8.8125 C 3.511719 9.414063 4.398438 9.292969 5 8.59375 L 8 4.8125 L 7.8125 4.59375 C 7.210938 4.09375 6.480469 3.894531 5.78125 3.96875 Z M 9.625 5 C 9.300781 5.039063 9.011719 5.199219 8.8125 5.5 C 7.8125 6.601563 6.300781 8.40625 5.5 9.40625 C 4.601563 10.507813 5.007813 12.195313 6.40625 12.59375 L 10.53125 13.78125 L 12.0625 18.3125 L 13.9375 17.6875 L 12.25 12.6875 L 12.125 12.28125 L 11.75 12.09375 L 8.78125 10.625 L 10.84375 8.09375 L 12.59375 9.40625 L 12.8125 9.5625 L 13.09375 9.59375 L 16.90625 10 L 17.09375 8 L 13.71875 7.625 L 10.59375 5.3125 C 10.292969 5.0625 9.949219 4.960938 9.625 5 Z M 18 11 C 15.800781 11 14 12.800781 14 15 C 14 17.199219 15.800781 19 18 19 C 20.199219 19 22 17.199219 22 15 C 22 12.800781 20.199219 11 18 11 Z M 18 12.59375 C 19.300781 12.59375 20.40625 13.699219 20.40625 15 C 20.40625 16.300781 19.300781 17.40625 18 17.40625 C 16.699219 17.40625 15.59375 16.300781 15.59375 15 C 15.59375 13.699219 16.699219 12.59375 18 12.59375 Z M 6 14 C 3.800781 14 2 15.800781 2 18 C 2 20.199219 3.800781 22 6 22 C 8.199219 22 10 20.199219 10 18 C 10 15.800781 8.199219 14 6 14 Z M 6 15.59375 C 7.300781 15.59375 8.40625 16.699219 8.40625 18 C 8.40625 19.300781 7.300781 20.40625 6 20.40625 C 4.699219 20.40625 3.59375 19.300781 3.59375 18 C 3.59375 16.699219 4.699219 15.59375 6 15.59375 Z"/></svg>