<?xml version="1.0" encoding="UTF-8"?>
<svg xmlns="http://www.w3.org/2000/svg" xmlns:xlink="http://www.w3.org/1999/xlink" viewBox="0 0 24 24" version="1.1" width="24px" height="24px">
<g id="surface1">
<path style=" " d="M 13 2 C 11.894531 2 11 2.894531 11 4 C 11 5.105469 11.894531 6 13 6 C 14.105469 6 15 5.105469 15 4 C 15 2.894531 14.105469 2 13 2 Z M 8.625 6.09375 C 7.273438 6.25 6.042969 7.148438 5.59375 8.5 L 5 10.5 C 4.699219 11.398438 5.289063 12.386719 6.1875 12.6875 C 7.1875 12.988281 8.105469 12.5 8.40625 11.5 L 10 6.1875 C 9.550781 6.0625 9.074219 6.042969 8.625 6.09375 Z M 10.90625 6.34375 L 10.3125 8.25 L 10.375 8.28125 L 9.1875 12.3125 C 8.988281 13.113281 9.304688 13.90625 9.90625 14.40625 L 12.84375 16.78125 C 12.949219 17.007813 13 17.253906 13 17.5 L 13 22 L 15 22 L 15 17.5 C 15 16.679688 14.730469 15.867188 14.1875 15.1875 L 14.15625 15.15625 L 12.21875 12.90625 L 13.1875 9.5 C 13.21875 9.53125 13.25 9.5625 13.28125 9.59375 L 14.09375 10.40625 C 14.730469 11.042969 15.65625 11.242188 16.40625 11.09375 L 18 10.78125 L 18 22 L 19 22 L 19 7 L 18 7 L 18 8.71875 L 16 9.125 C 15.75 9.175781 15.664063 9.164063 15.5 9 L 15.4375 8.9375 L 14.71875 8.1875 C 14.011719 7.480469 13.140625 6.996094 12.1875 6.75 L 12.15625 6.75 Z M 9.40625 15.59375 L 7.09375 22 L 9.1875 22 L 11 17 Z "/>
</g>
</svg>
