<?xml version="1.0"?><svg xmlns="http://www.w3.org/2000/svg"  viewBox="0 0 24 24" width="24px" height="24px">    <path d="M 17 2 A 2 2 0 0 0 15 4 A 2 2 0 0 0 17 6 A 2 2 0 0 0 19 4 A 2 2 0 0 0 17 2 z M 10.648438 4.9277344 L 6.4160156 7.1113281 L 7.3339844 8.8886719 L 10.851562 7.0722656 L 12.070312 7.4316406 L 10.267578 11.003906 A 2 2 0 0 0 10 12 A 2 2 0 0 0 10.736328 13.546875 A 2 2 0 0 0 10.746094 13.554688 L 13.847656 16.445312 L 13.857422 16.455078 L 12.0625 21.302734 L 13.9375 21.998047 L 16.142578 16.044922 L 16.136719 16.037109 L 13.966797 12.535156 L 15.287109 9.8964844 L 16.720703 12 L 21 12 L 21 10 L 17.779297 10 L 15.730469 6.9960938 L 15.724609 6.9921875 A 2 2 0 0 0 14.457031 6.0546875 L 14.451172 6.0507812 L 10.648438 4.9277344 z M 9.4414062 14.398438 L 8.8769531 15 L 4 15 L 4 17 L 9.7441406 17 L 10.900391 15.767578 L 9.4414062 14.398438 z"/></svg>