<svg xmlns="http://www.w3.org/2000/svg"  viewBox="0 0 24 24" width="24px" height="24px"><path d="M 16 2 C 16 2 10 3 10 7 C 10 10 11 11 11 14 C 11 19 2 22 2 22 L 17 22 C 17 22 20 20.605 20 16 C 20 12.441 16 9.996 16 7 C 16 3 20 2 20 2 L 16 2 z M 21 4 C 20 4 19 5.895 19 7 C 19 7.738 19.405 8.3756562 20 8.7226562 L 20 11 L 22 11 L 22 8.7226562 C 22.595 8.3756562 23 7.738 23 7 C 23 5.895 22 4 21 4 z M 4 10 C 2.168 10 1 12.626 1 14 C 1 15.302 1.839 16.402406 3 16.816406 L 3 19 L 5 19 L 5 16.816406 C 6.161 16.402406 7 15.302 7 14 C 7 12.626 5.832 10 4 10 z"/></svg>