<?xml version="1.0" encoding="UTF-8"?>
<svg xmlns="http://www.w3.org/2000/svg" xmlns:xlink="http://www.w3.org/1999/xlink" viewBox="0 0 24 24" version="1.1" width="24px" height="24px">
<g id="surface1">
<path style=" " d="M 11 2 C 9.894531 2 9 2.894531 9 4 C 9 5.105469 9.894531 6 11 6 C 12.105469 6 13 5.105469 13 4 C 13 2.894531 12.105469 2 11 2 Z M 20 2 C 20 5.394531 18.957031 7.101563 17.84375 8 C 16.730469 8.898438 15.472656 9 15 9 L 15 10 C 15.625 10 17.105469 9.851563 18.46875 8.75 C 19.832031 7.648438 21 5.605469 21 2 Z M 16.03125 2.15625 C 16.03125 2.15625 15.628906 3.738281 15.25 4.875 L 15.25 4.90625 L 15.21875 4.96875 C 15.105469 5.425781 14.757813 5.777344 14.3125 5.96875 L 8.625 8.375 C 7.835938 8.703125 7.113281 8.46875 6.65625 7.75 C 5.953125 6.542969 5.15625 5.28125 5.15625 5.28125 L 3.4375 6.3125 C 3.4375 6.3125 4.246094 7.628906 4.9375 8.8125 L 4.96875 8.84375 C 5.910156 10.324219 7.761719 10.890625 9.375 10.21875 L 9.5625 10.15625 L 10.5 13.1875 L 14.3125 11.40625 L 13.9375 8.3125 L 15.09375 7.8125 C 16.019531 7.414063 16.816406 6.621094 17.125 5.53125 L 17.15625 5.53125 C 17.578125 4.269531 17.96875 2.65625 17.96875 2.65625 Z M 16 12.0625 C 15.628906 12.050781 15.265625 12.121094 14.90625 12.28125 L 14.875 12.28125 L 14.84375 12.3125 L 10.25 14.59375 C 8.964844 15.238281 7.984375 16.449219 7.71875 17.90625 L 9.6875 18.28125 C 9.824219 17.539063 10.441406 16.761719 11.15625 16.40625 L 14 15 L 14 22 L 15 22 L 15 14.5 L 15.71875 14.125 C 15.902344 14.042969 16.027344 14.042969 16.125 14.09375 C 16.222656 14.144531 16.292969 14.21875 16.3125 14.40625 L 16.8125 18.90625 L 18.78125 18.6875 L 18.28125 14.1875 C 18.199219 13.375 17.714844 12.691406 17.0625 12.34375 C 16.734375 12.167969 16.371094 12.074219 16 12.0625 Z M 7.71875 17.90625 L 7.6875 17.90625 L 6.8125 22 L 8.90625 22 L 9.6875 18.3125 Z "/>
</g>
</svg>
