<?xml version="1.0" encoding="UTF-8"?>
<svg xmlns="http://www.w3.org/2000/svg" xmlns:xlink="http://www.w3.org/1999/xlink" viewBox="0 0 24 24" version="1.1" width="24px" height="24px">
<g id="surface1">
<path style=" " d="M 5 3 L 5 4 L 3 4 L 3 6 L 5 6 L 5 7 L 3 7 L 3 9 L 5 9 L 5 11 L 7 11 L 7 9 L 17 9 L 17 11 L 19 11 L 19 9 L 21 9 L 21 7 L 19 7 L 19 6 L 21 6 L 21 4 L 19 4 L 19 3 L 17 3 L 17 4 L 7 4 L 7 3 Z M 7 6 L 17 6 L 17 7 L 7 7 Z M 2 12 L 2 15 L 3 15 L 3 20 L 5 20 L 5 15 L 6 15 L 6 18 L 8 18 L 8 15 L 16 15 L 16 18 L 18 18 L 18 15 L 19 15 L 19 20 L 21 20 L 21 15 L 22 15 L 22 12 Z "/>
</g>
</svg>
