<?xml version="1.0" encoding="UTF-8" standalone="no"?>
<!-- Generator: Adobe Illustrator 19.0.0, SVG Export Plug-In . SVG Version: 6.00 Build 0)  -->

<svg
   xmlns:dc="http://purl.org/dc/elements/1.1/"
   xmlns:cc="http://creativecommons.org/ns#"
   xmlns:rdf="http://www.w3.org/1999/02/22-rdf-syntax-ns#"
   xmlns:svg="http://www.w3.org/2000/svg"
   xmlns="http://www.w3.org/2000/svg"
   xmlns:sodipodi="http://sodipodi.sourceforge.net/DTD/sodipodi-0.dtd"
   xmlns:inkscape="http://www.inkscape.org/namespaces/inkscape"
   version="1.1"
   id="Layer_1"
   x="0px"
   y="0px"
   viewBox="0 0 524.02967 437.5633"
   xml:space="preserve"
   sodipodi:docname="goat.svg"
   width="524.02966"
   height="437.56329"
   inkscape:version="0.92.2 5c3e80d, 2017-08-06"><metadata
     id="metadata49"><rdf:RDF><cc:Work
         rdf:about=""><dc:format>image/svg+xml</dc:format><dc:type
           rdf:resource="http://purl.org/dc/dcmitype/StillImage" /></cc:Work></rdf:RDF></metadata><defs
     id="defs47" /><sodipodi:namedview
     pagecolor="#ffffff"
     bordercolor="#666666"
     borderopacity="1"
     objecttolerance="10"
     gridtolerance="10"
     guidetolerance="10"
     inkscape:pageopacity="0"
     inkscape:pageshadow="2"
     inkscape:window-width="1829"
     inkscape:window-height="874"
     id="namedview45"
     showgrid="false"
     inkscape:zoom="0.92199925"
     inkscape:cx="117.97535"
     inkscape:cy="262.15098"
     inkscape:window-x="0"
     inkscape:window-y="0"
     inkscape:window-maximized="0"
     inkscape:current-layer="g10" /><g
     id="g6"
     transform="translate(5.813278,-37.369428)"><g
       id="g4"><path
         d="m 351.952,223.227 c -5.889,0 -10.67,4.78 -10.67,10.67 0,5.891 4.781,10.663 10.67,10.663 5.891,0 10.671,-4.772 10.671,-10.663 0,-5.89 -4.78,-10.67 -10.671,-10.67 z"
         id="path2"
         inkscape:connector-curvature="0" /></g></g><g
     id="g12"
     transform="translate(5.813278,-37.369428)"><g
       id="g10"><path
         d="M 123.40234,37.457031 C 81.724375,38.559215 39.889273,45.749656 0.82617188,60.357422 -10.138571,67.475197 -6.9793347,87.550954 6.3085938,89.832031 c 11.0268462,2.03079 22.3853772,0.07515 33.4257812,2.029297 62.696655,5.108778 126.777615,20.606682 178.262535,58.535322 7.97455,6.05542 15.51132,12.70106 22.40739,19.96468 -8.53254,9.66175 -16.08961,20.12228 -23.60547,30.57812 -24.63374,6.66872 -50.03876,10.8555 -74.16406,19.19141 -10.86913,6.84306 -8.43444,25.66733 3.76179,29.66677 9.19084,5.17911 18.86732,9.4695 28.77922,13.0676 -40.08483,62.60019 -79.369819,125.77721 -116.51953,190.14649 -4.124199,11.82327 8.483992,24.36001 20.347649,21.51172 56.974191,-0.41277 114.040791,0.87543 170.957041,-0.67383 11.54972,-3.60785 13.49691,-17.3354 19.23939,-26.29212 16.26982,-32.13245 32.53963,-64.26489 48.80944,-96.39733 48.12532,7.95413 96.35141,17.86912 145.28711,18.64257 21.67315,-2.24977 41.75246,-15.7589 53.05859,-34.17578 3.88849,-9.87295 0.26465,-20.5395 1.56075,-30.76351 0.56315,-9.87712 1.11226,-21.36189 -6.89864,-28.70133 -35.78757,-37.3878 -68.32946,-78.02564 -107.23262,-112.37778 -14.99504,-13.71884 -29.02201,-28.82029 -45.07793,-41.19839 -10.62514,-4.50062 -21.49744,2.93964 -31.88086,2.64648 C 304.01881,97.569188 274.19047,75.650952 241.50022,60.862997 204.58481,44.022923 163.89505,36.455828 123.40234,37.457031 Z m -17.02539,30.425781 c 4.334,5.72531 -5.84732,2.49611 0,0 z m 33.03907,2.855469 c 5.683,0.823077 11.85912,0.565216 17.3457,1.59375 -1.39455,2.473219 -0.75741,9.690302 -4.8086,7.570313 -4.54225,-1.722452 -10.24135,-2.566179 -14.16601,-4.744141 0.53997,-1.223349 0.2109,-3.892058 1.62891,-4.419922 z m 54.02539,8.181641 c 2.60326,1.525729 10.69922,0.605701 6.7539,5.277344 -1.87207,4.344021 -3.6818,8.717568 -5.72265,12.986328 -2.67668,-1.969506 -8.29388,-2.60087 -9.0025,-5.322497 2.70304,-3.473568 1.90872,-16.22842 7.97125,-12.941175 z m 39.8125,14.78125 c 35.61135,17.098778 65.41081,44.814818 86.32617,78.101558 9.55219,9.32864 28.22769,1.3614 27.79687,-12.11523 0.17637,-1.65942 -1.43388,-5.05616 1.35352,-2.32031 15.961,16.22228 33.40698,31.05811 49.60513,47.05232 26.76499,25.34501 50.41731,53.93 75.46518,80.74065 -8.66606,-2.76383 -20.27783,-0.94809 -24.14453,8.2832 -4.56026,9.52978 1.74988,22.25287 12.41797,23.56836 7.19011,2.51171 16.01205,2.42068 22.4707,5.31055 -3.37767,5.8195 -9.9808,9.0506 -15.70898,12.19335 -14.034,4.77962 -28.61398,0.002 -43.00196,-0.49804 -42.01035,-4.7989 -83.85754,-12.03978 -125.17773,-20.33399 -12.00414,-2.9458 -23.33135,-9.74836 -35.72266,-11.16992 -12.96543,0.81106 -20.44045,19.41293 -10.16211,28.19531 8.2583,7.65208 20.45638,8.43505 30.07032,13.1504 -14.65135,26.62499 -27.69624,54.37533 -41.73236,81.43067 -3.20205,4.99859 -4.93359,12.39008 -9.05085,15.8994 -43.3483,0 -86.69661,0 -130.04492,0 34.21581,-56.96598 68.83126,-113.67012 105.07031,-169.36914 30.47692,4.91597 63.91121,1.7518 90.13868,-15.63867 10.0381,-9.22358 2.26245,-29.09854 -11.63282,-28.20898 -10.65563,0.51372 -18.69659,8.88391 -29.27734,9.97656 -16.78184,4.12521 -34.59118,3.27543 -51.27344,-0.40625 26.703,-6.89004 54.07042,-11.91183 80.1875,-20.66602 10.21481,-6.63546 8.22796,-23.96333 -2.24609,-28.86914 5.17101,-9.37066 -1.69417,-19.68976 -8.20729,-26.35646 -14.64271,-18.97572 -33.02898,-34.881 -53.0642,-47.94627 2.95508,-6.77604 5.91016,-13.55209 8.86524,-20.328127 z"
         id="path8"
         inkscape:connector-curvature="0" /></g></g><g
     id="g14"
     transform="translate(5.813278,-37.369428)" /><g
     id="g16"
     transform="translate(5.813278,-37.369428)" /><g
     id="g18"
     transform="translate(5.813278,-37.369428)" /><g
     id="g20"
     transform="translate(5.813278,-37.369428)" /><g
     id="g22"
     transform="translate(5.813278,-37.369428)" /><g
     id="g24"
     transform="translate(5.813278,-37.369428)" /><g
     id="g26"
     transform="translate(5.813278,-37.369428)" /><g
     id="g28"
     transform="translate(5.813278,-37.369428)" /><g
     id="g30"
     transform="translate(5.813278,-37.369428)" /><g
     id="g32"
     transform="translate(5.813278,-37.369428)" /><g
     id="g34"
     transform="translate(5.813278,-37.369428)" /><g
     id="g36"
     transform="translate(5.813278,-37.369428)" /><g
     id="g38"
     transform="translate(5.813278,-37.369428)" /><g
     id="g40"
     transform="translate(5.813278,-37.369428)" /><g
     id="g42"
     transform="translate(5.813278,-37.369428)" /></svg>