<?xml version="1.0"?>
<svg xmlns="http://www.w3.org/2000/svg" viewBox="0 0 24 24" width="24px" height="24px">
    <path style="line-height:normal;text-indent:0;text-align:start;text-decoration-line:none;text-decoration-style:solid;text-decoration-color:#000;text-transform:none;block-progression:tb;isolation:auto;mix-blend-mode:normal" d="M 9.7070312 2.2929688 L 8.2929688 3.7070312 L 11 6.4140625 L 11 10.195312 L 7.7929688 8.1894531 L 6.9355469 4.4589844 L 4.9863281 4.9082031 L 5.7148438 8.0683594 L 2.5546875 8.796875 L 3.0039062 10.746094 L 6.7324219 9.8867188 L 10.113281 12 L 6.7324219 14.113281 L 3.0039062 13.253906 L 2.5546875 15.203125 L 5.7148438 15.931641 L 4.9863281 19.091797 L 6.9355469 19.541016 L 7.7929688 15.810547 L 11 13.806641 L 11 17.585938 L 8.2929688 20.292969 L 9.7070312 21.707031 L 12 19.414062 L 14.292969 21.707031 L 15.707031 20.292969 L 13 17.585938 L 13 13.806641 L 16.207031 15.810547 L 17.064453 19.541016 L 19.013672 19.091797 L 18.285156 15.931641 L 21.445312 15.203125 L 20.996094 13.253906 L 17.267578 14.113281 L 13.886719 12 L 17.267578 9.8867188 L 20.996094 10.746094 L 21.445312 8.796875 L 18.285156 8.0683594 L 19.013672 4.9082031 L 17.064453 4.4589844 L 16.207031 8.1894531 L 13 10.195312 L 13 6.4140625 L 15.707031 3.7070312 L 14.292969 2.2929688 L 12 4.5859375 L 9.7070312 2.2929688 z"/>
</svg>
