<?xml version="1.0" encoding="UTF-8" standalone="no"?>
<svg
   xmlns:dc="http://purl.org/dc/elements/1.1/"
   xmlns:cc="http://creativecommons.org/ns#"
   xmlns:rdf="http://www.w3.org/1999/02/22-rdf-syntax-ns#"
   xmlns:svg="http://www.w3.org/2000/svg"
   xmlns="http://www.w3.org/2000/svg"
   xmlns:sodipodi="http://sodipodi.sourceforge.net/DTD/sodipodi-0.dtd"
   xmlns:inkscape="http://www.inkscape.org/namespaces/inkscape"
   viewBox="0 0 24 24"
   width="24"
   height="24"
   fill="#000000"
   version="1.1"
   id="svg4"
   sodipodi:docname="icons8-signal0.svg"
   inkscape:version="0.92.2 5c3e80d, 2017-08-06">
  <path
     d="m 17,4 c 0,5.3333333 0,10.666667 0,16 2,0 4,0 6,0 0,-5.333333 0,-10.6666667 0,-16 -2,0 -4,0 -6,0 z m 2,2 c 0.666667,0 1.333333,0 2,0 0,4 0,8 0,12 -0.666667,0 -1.333333,0 -2,0 0,-4 0,-8 0,-12 z"
     id="path840"
     inkscape:connector-curvature="0" />
  <path
     d="M 9 8 L 9 20 L 15 20 L 15 8 L 9 8 z M 11 10.017578 L 13 10.017578 L 13 18 L 11 18 L 11 10.017578 z "
     id="path817" />
  <path
     d="M 1 12 L 1 20 L 7 20 L 7 12 L 1 12 z M 2.9667969 14.035156 L 4.9667969 14.035156 L 4.9667969 18 L 2.9667969 18 L 2.9667969 14.035156 z "
     id="path2" />
</svg>
