<?xml version="1.0" encoding="UTF-8" standalone="yes"?>
<svg xmlns="http://www.w3.org/2000/svg" viewBox="0 0 24 24" width="24" height="24" fill="#000000">
  <path d="M 3.5 2 L 2 5 L 2 10 L 22 10 L 22 8 L 21 8 L 21 5 L 19.5 2 L 18 5 L 18 8 L 17 8 L 17 5 L 15.5 2 L 14 5 L 14 8 L 13 8 L 13 5 L 11.5 2 L 10 5 L 10 8 L 9 8 L 9 5 L 7.5 2 L 6 5 L 6 8 L 5 8 L 5 5 Z M 2 11 L 2 18 L 22 18 L 22 16 L 21 16 L 21 11 L 18 11 L 18 16 L 17 16 L 17 11 L 14 11 L 14 16 L 13 16 L 13 11 L 10 11 L 10 16 L 9 16 L 9 11 L 6 11 L 6 16 L 5 16 L 5 11 Z M 2 19 L 2 22 L 5 22 L 5 19 Z M 6 19 L 6 22 L 9 22 L 9 19 Z M 10 19 L 10 22 L 13 22 L 13 19 Z M 14 19 L 14 22 L 17 22 L 17 19 Z M 18 19 L 18 22 L 21 22 L 21 19 Z"/>
</svg>
