<?xml version="1.0" encoding="UTF-8" standalone="yes"?>
<svg xmlns="http://www.w3.org/2000/svg" viewBox="0 0 24 24" width="24" height="24" fill="#000000">
  <path d="M 9.5 2 A 1.5 1.5 0 0 0 8 3.5 A 1.5 1.5 0 0 0 9.5 5 A 1.5 1.5 0 0 0 11 3.5 A 1.5 1.5 0 0 0 9.5 2 z M 9.5 5 L 6 5 L 6 7 L 11 7 L 11 9 L 6.0253906 9 L 5.7265625 9.3671875 C 5.6555625 9.4531875 4 11.522 4 15.5 C 4 19.479 5.6545625 21.547766 5.7265625 21.634766 L 6.0253906 22 L 17.982422 22 L 18.283203 21.621094 C 18.354203 21.533094 20 19.416 20 15.5 C 20 11.583 18.353203 9.4669063 18.283203 9.3789062 L 17.982422 9 L 13 9 L 13 7 L 18 7 L 18 5 L 14.5 5 L 13 5 L 11 5 L 9.5 5 z M 14.5 5 A 1.5 1.5 0 0 0 16 3.5 A 1.5 1.5 0 0 0 14.5 2 A 1.5 1.5 0 0 0 13 3.5 A 1.5 1.5 0 0 0 14.5 5 z M 7.0410156 11 L 11 11 L 11 16 L 6.0175781 16 C 6.0105781 15.835 6 15.674 6 15.5 C 6 13.157 6.6730156 11.649 7.0410156 11 z M 13 11 L 16.953125 11 C 17.326125 11.667 18 13.192 18 15.5 C 18 15.674 17.989422 15.835 17.982422 16 L 13 16 L 13 11 z"/>
</svg>
