<?xml version="1.0" encoding="UTF-8" standalone="no"?>
<svg
   xmlns:dc="http://purl.org/dc/elements/1.1/"
   xmlns:cc="http://creativecommons.org/ns#"
   xmlns:rdf="http://www.w3.org/1999/02/22-rdf-syntax-ns#"
   xmlns:svg="http://www.w3.org/2000/svg"
   xmlns="http://www.w3.org/2000/svg"
   xmlns:sodipodi="http://sodipodi.sourceforge.net/DTD/sodipodi-0.dtd"
   xmlns:inkscape="http://www.inkscape.org/namespaces/inkscape"
   viewBox="0 0 24 24"
   version="1.1"
   width="24px"
   height="24px"
   id="svg5"
   inkscape:version="0.92.2 5c3e80d, 2017-08-06">
  <defs
     id="defs9" />
  <g
     id="surface1">
    <path
       d="M 11,2 C 9.894531,2 9,2.894531 9,4 9,5.105469 9.894531,6 11,6 12.105469,6 13,5.105469 13,4 13,2.894531 12.105469,2 11,2 Z m 5.03125,0.15625 c 0,0 -0.402344,1.582031 -0.78125,2.71875 v 0.03125 l -0.03125,0.0625 c -0.113281,0.457031 -0.460937,0.808594 -0.90625,1 L 8.625,8.375 C 7.835938,8.703125 7.113281,8.46875 6.65625,7.75 5.953125,6.542969 5.15625,5.28125 5.15625,5.28125 L 3.4375,6.3125 c 0,0 0.808594,1.316406 1.5,2.5 l 0.03125,0.03125 c 0.941406,1.480469 2.792969,2.046875 4.40625,1.375 l 0.1875,-0.0625 0.9375,3.03125 3.8125,-1.78125 -0.375,-3.09375 1.15625,-0.5 C 16.019531,7.414063 16.816406,6.621094 17.125,5.53125 h 0.03125 c 0.421875,-1.261719 0.8125,-2.875 0.8125,-2.875 z M 16,12.0625 c -0.371094,-0.01172 -0.734375,0.05859 -1.09375,0.21875 H 14.875 L 14.84375,12.3125 10.25,14.59375 c -1.285156,0.644531 -2.265625,1.855469 -2.53125,3.3125 l 1.96875,0.375 c 0.136719,-0.742187 0.753906,-1.519531 1.46875,-1.875 L 14,15 l 1,-0.5 0.71875,-0.375 c 0.183594,-0.08203 0.308594,-0.08203 0.40625,-0.03125 0.09766,0.05078 0.167969,0.125 0.1875,0.3125 l 0.5,4.5 1.96875,-0.21875 -0.5,-4.5 C 18.199219,13.375 17.714844,12.691406 17.0625,12.34375 16.734375,12.167969 16.371094,12.074219 16,12.0625 Z M 7.71875,17.90625 H 7.6875 L 6.8125,22 H 8.90625 L 9.6875,18.3125 Z"
       id="path2" />
  </g>
</svg>
