<svg xmlns="http://www.w3.org/2000/svg"  viewBox="0 0 24 24" width="24px" height="24px"><path d="M 12 2 C 10.894531 2 10 2.894531 10 4 C 10 5.105469 10.894531 6 12 6 C 13.105469 6 14 5.105469 14 4 C 14 2.894531 13.105469 2 12 2 Z M 12 7 C 10.898438 7 10 7.898438 10 9 L 10 14 C 10 15.101563 10.898438 16 12 16 L 16.5 16 L 19.1875 19.59375 L 20.8125 18.40625 L 17.8125 14.40625 L 17.5 14 L 14 14 L 14 9 C 14 7.898438 13.101563 7 12 7 Z M 9 10 C 6.199219 10.601563 4 13 4 16 C 4 19.300781 6.699219 22 10 22 C 13 22 15.40625 19.800781 15.90625 17 L 13.90625 17 C 13.507813 18.699219 11.898438 20 10 20 C 7.800781 20 6 18.199219 6 16 C 6 14.101563 7.300781 12.59375 9 12.09375 Z"/></svg>