<?xml version="1.0"?>
<svg xmlns="http://www.w3.org/2000/svg" viewBox="0 0 24 24" width="24px" height="24px">
    <path d="M 0 4 L 0 18 L 1 18 C 8.91 18 11 19.309 11 20 L 13 20 C 13 19.309 15.09 18 23 18 L 24 18 L 24 4 L 23 4 C 17.203053 4 13.610208 4.6415821 12 5.9824219 C 10.389792 4.6415821 6.7969474 4 1 4 L 0 4 z M 2 6.0078125 C 9.088 6.1128125 11 7.338 11 8 L 13 8 C 13 7.338 14.912 6.1128125 22 6.0078125 L 22 16.007812 C 16.793633 16.077944 13.51844 16.716235 12 17.974609 C 10.48156 16.716235 7.2063673 16.077944 2 16.007812 L 2 6.0078125 z M 11 10 L 11 12 L 13 12 L 13 10 L 11 10 z M 11 14 L 11 16 L 13 16 L 13 14 L 11 14 z"/>
</svg>
