<?xml version="1.0" encoding="UTF-8" standalone="yes"?>
<svg xmlns="http://www.w3.org/2000/svg" viewBox="0 0 24 24" width="24" height="24" fill="#000000">
  <path d="M 6 3 L 6 5 L 10 5 L 10 3 L 6 3 z M 14 3 L 14 5 L 18 5 L 18 3 L 14 3 z M 6 7 C 5.448 7 5 7.448 5 8 L 5 10 C 3.895 10 3 10.895 3 12 L 3 20 C 3 20.552 3.448 21 4 21 L 10 21 C 10.552 21 11 20.552 11 20 L 11 14 L 13 14 L 13 20 C 13 20.552 13.448 21 14 21 L 20 21 C 20.552 21 21 20.552 21 20 L 21 12 C 21 10.895 20.105 10 19 10 L 19 8 C 19 7.448 18.552 7 18 7 L 14 7 C 13.448 7 13 7.448 13 8 L 13 10 L 11 10 L 11 8 C 11 7.448 10.552 7 10 7 L 6 7 z"/>
</svg>
