<?xml version="1.0" standalone="no"?>
<!DOCTYPE svg PUBLIC "-//W3C//DTD SVG 20010904//EN"
 "http://www.w3.org/TR/2001/REC-SVG-20010904/DTD/svg10.dtd">
<svg version="1.0" xmlns="http://www.w3.org/2000/svg"
 width="1152.000000pt" height="1152.000000pt" viewBox="0 0 1152.000000 1152.000000"
 preserveAspectRatio="xMidYMid meet">
<metadata>
Created by potrace 1.11, written by Peter Selinger 2001-2013
</metadata>
<g transform="translate(0.000000,1152.000000) scale(0.100000,-0.100000)"
fill="#000000" stroke="none">
<path d="M5269 11516 c-2 -2 -49 -7 -104 -11 -55 -3 -111 -8 -125 -9 -14 -2
-56 -7 -95 -11 -38 -4 -77 -8 -85 -10 -8 -1 -40 -6 -70 -10 -30 -4 -64 -9 -75
-11 -35 -7 -69 -13 -110 -20 -22 -3 -44 -7 -50 -9 -13 -3 -76 -15 -95 -19 -8
-2 -26 -6 -40 -9 -14 -4 -36 -9 -50 -12 -44 -9 -103 -23 -185 -44 -44 -12 -93
-24 -110 -27 -16 -3 -38 -10 -47 -15 -10 -5 -18 -7 -18 -3 0 3 -7 1 -15 -6 -8
-7 -15 -10 -15 -7 0 4 -57 -14 -127 -39 -71 -25 -132 -47 -138 -48 -12 -4 -39
-14 -85 -34 -19 -8 -40 -16 -47 -18 -28 -6 -411 -201 -423 -215 -3 -3 -16 -12
-30 -19 -63 -33 -266 -174 -337 -233 -83 -70 -136 -118 -199 -181 -62 -62 -96
-100 -188 -206 -75 -87 -217 -297 -277 -410 -18 -36 -38 -68 -44 -72 -5 -4 -6
-8 -1 -8 5 0 4 -6 -2 -12 -29 -36 -113 -267 -152 -417 -36 -136 -43 -167 -55
-251 -2 -19 -7 -46 -9 -60 -18 -93 -29 -266 -29 -470 1 -197 8 -318 29 -450 3
-19 7 -44 8 -55 3 -22 19 -117 21 -125 1 -3 5 -18 9 -35 23 -97 83 -289 99
-320 6 -11 12 -25 13 -31 1 -7 13 -35 28 -63 14 -28 23 -51 20 -51 -3 0 2 -7
10 -16 9 -8 16 -22 16 -30 0 -8 5 -14 10 -14 6 0 10 -6 10 -14 0 -7 9 -25 21
-40 11 -14 18 -26 14 -26 -3 0 -1 -6 5 -12 6 -7 32 -43 58 -79 51 -72 91 -126
107 -143 6 -6 31 -36 56 -66 83 -98 265 -271 368 -350 18 -14 38 -30 45 -36
23 -21 243 -164 306 -198 92 -51 345 -174 405 -198 27 -11 66 -26 85 -35 139
-60 359 -135 615 -208 92 -26 474 -125 588 -151 9 -2 25 -6 35 -8 28 -7 195
-47 217 -52 22 -6 53 -12 88 -18 12 -2 55 -12 96 -21 40 -9 80 -19 90 -20 9
-2 16 -4 16 -5 0 -1 11 -3 25 -6 27 -5 111 -21 150 -30 14 -3 39 -8 55 -11 46
-8 60 -11 60 -13 0 -1 9 -3 20 -4 11 -1 37 -6 57 -10 21 -4 40 -7 43 -7 2 0
19 -5 37 -10 18 -5 53 -12 77 -15 25 -3 48 -7 52 -10 6 -3 135 -32 224 -49 60
-12 565 -129 645 -150 61 -15 270 -67 290 -71 20 -4 171 -45 215 -58 6 -2 24
-6 40 -11 231 -60 663 -236 888 -362 31 -17 57 -29 57 -25 0 4 4 3 8 -3 4 -5
27 -21 51 -34 131 -71 328 -218 444 -330 37 -36 72 -67 77 -69 6 -2 10 -8 10
-13 0 -6 16 -27 36 -47 21 -20 70 -82 111 -137 40 -55 78 -105 83 -112 31 -39
150 -293 150 -322 0 -9 4 -21 9 -27 19 -21 66 -236 87 -394 13 -106 19 -389
10 -485 -3 -22 -7 -72 -10 -110 -4 -39 -9 -84 -12 -100 -19 -114 -28 -157 -45
-224 -11 -42 -21 -83 -23 -91 -10 -38 -50 -146 -59 -157 -5 -7 -7 -13 -3 -13
4 0 -1 -15 -11 -32 -9 -18 -18 -35 -18 -38 -4 -25 -124 -233 -137 -238 -4 -2
-8 -8 -8 -13 0 -15 -100 -153 -188 -259 -45 -53 -209 -220 -272 -274 -81 -70
-231 -178 -339 -243 -58 -35 -113 -68 -121 -73 -26 -16 -234 -117 -267 -130
-18 -7 -33 -17 -33 -23 0 -6 -2 -8 -5 -5 -3 3 -41 -8 -83 -24 -91 -35 -247
-87 -282 -94 -38 -9 -41 -10 -90 -23 -25 -7 -52 -15 -60 -16 -67 -15 -272 -57
-299 -61 -18 -3 -43 -8 -55 -10 -40 -8 -199 -31 -273 -39 -106 -12 -143 -15
-258 -22 -238 -13 -655 -3 -902 22 -29 3 -79 7 -110 10 -32 3 -76 8 -98 12
-22 3 -53 7 -70 9 -36 3 -97 12 -145 20 -19 3 -44 7 -55 9 -81 13 -102 17
-119 22 -11 3 -34 7 -50 9 -25 2 -211 42 -276 58 -80 20 -232 65 -270 78 -8 3
-51 18 -95 33 -164 57 -448 187 -596 272 -134 78 -364 233 -389 262 -3 3 -27
24 -55 46 -48 38 -277 264 -323 318 -12 15 -22 32 -22 37 0 6 -4 10 -8 10 -17
0 -234 308 -247 351 -4 10 -11 19 -16 19 -6 0 -8 4 -4 9 3 5 1 12 -5 16 -5 3
-33 54 -63 113 -45 90 -72 154 -127 297 -10 26 -50 156 -54 175 -2 8 -6 26 -9
40 -4 14 -9 36 -12 50 -2 14 -8 41 -13 60 -5 19 -9 38 -10 43 -3 17 -12 74
-17 102 -3 17 -8 50 -10 75 -3 25 -7 61 -10 80 -12 86 -18 231 -19 430 l0 216
-339 0 -339 0 4 -223 c1 -123 5 -223 8 -223 3 0 6 -28 8 -63 1 -34 4 -80 7
-102 3 -22 8 -62 11 -90 8 -83 26 -197 48 -320 15 -78 71 -302 86 -340 4 -11
20 -58 35 -105 68 -208 162 -407 293 -620 26 -41 49 -77 52 -80 3 -3 11 -17
19 -33 8 -15 18 -27 23 -27 4 0 8 -5 8 -10 0 -10 37 -67 51 -80 3 -3 18 -23
34 -45 17 -22 32 -42 36 -45 3 -3 12 -15 20 -26 60 -89 359 -393 479 -489 41
-33 81 -66 89 -73 19 -18 266 -183 311 -208 19 -10 37 -21 40 -24 5 -5 32 -20
160 -87 47 -24 89 -49 95 -54 5 -5 15 -9 21 -9 7 0 48 -16 91 -36 176 -82 407
-165 593 -215 41 -11 100 -27 130 -35 30 -8 64 -17 75 -19 11 -3 56 -14 100
-24 72 -18 310 -68 360 -76 17 -2 78 -12 188 -30 50 -9 82 -13 142 -20 32 -4
68 -9 80 -11 11 -2 47 -6 80 -9 33 -2 78 -7 100 -9 43 -6 113 -12 290 -23 237
-15 790 -8 965 12 19 2 60 6 90 9 30 4 66 8 80 10 14 3 45 7 70 10 25 4 56 8
70 11 14 2 68 11 120 20 52 9 97 18 100 20 3 2 21 6 40 9 59 9 339 75 450 106
169 47 317 97 415 140 22 9 60 25 85 36 56 23 406 200 423 214 6 5 62 42 122
81 108 71 255 177 286 208 9 9 38 34 65 56 78 63 272 262 357 365 106 129 291
399 289 420 0 3 5 12 12 20 15 18 71 133 67 139 -1 2 1 7 6 10 16 11 115 282
128 350 2 13 7 31 10 41 3 10 8 27 10 37 3 10 9 36 14 58 6 22 12 56 16 75 3
19 7 46 10 60 12 67 17 99 20 140 2 25 4 45 5 45 1 0 5 38 8 85 14 171 6 622
-12 715 -2 11 -6 41 -10 66 -29 202 -84 406 -154 574 -38 92 -125 251 -195
357 -106 161 -181 252 -322 393 -112 112 -144 140 -230 205 -33 25 -62 47 -65
50 -3 3 -34 24 -70 47 -36 24 -70 47 -77 53 -7 5 -15 10 -18 10 -4 0 -26 14
-50 30 -24 17 -48 30 -53 30 -6 0 -12 4 -14 9 -3 9 -98 63 -208 118 -41 21
-77 41 -78 46 -2 4 -8 5 -13 1 -5 -3 -9 0 -9 5 0 6 -3 10 -7 9 -5 -1 -39 13
-78 31 -38 18 -92 42 -120 53 -27 11 -63 25 -80 33 -88 38 -323 118 -485 164
-58 16 -126 36 -152 44 -27 8 -48 13 -48 11 0 -3 -13 2 -30 11 -16 8 -31 14
-32 13 -3 -2 -92 20 -118 29 -8 3 -22 7 -30 9 -26 5 -144 36 -160 41 -8 4 -21
7 -29 9 -50 10 -120 27 -141 34 -22 7 -106 26 -150 34 -8 2 -22 6 -30 9 -8 3
-49 13 -90 21 -41 9 -106 23 -145 32 -38 8 -81 17 -95 19 -14 2 -70 13 -125
24 -55 12 -111 23 -125 26 -14 3 -45 10 -70 15 -25 5 -56 12 -70 14 -14 2 -59
11 -100 20 -41 8 -86 17 -100 20 -14 2 -32 7 -40 10 -8 3 -31 8 -50 11 -66 11
-76 14 -285 61 -11 2 -33 7 -50 10 -16 2 -46 9 -65 14 -19 5 -46 11 -60 14
-14 2 -119 25 -234 51 -115 26 -216 48 -225 50 -38 8 -217 55 -301 79 -30 9
-62 18 -70 20 -33 8 -307 99 -335 111 -16 7 -86 34 -155 60 -148 57 -296 127
-409 192 -45 27 -92 53 -104 60 -12 7 -31 19 -42 27 -11 8 -56 40 -100 71 -93
66 -193 153 -285 246 -105 106 -200 219 -200 237 0 6 -4 12 -9 14 -16 6 -136
210 -130 220 1 2 -7 21 -18 43 -11 22 -26 58 -32 80 -7 22 -16 49 -21 60 -9
22 -23 72 -25 95 -1 8 -6 26 -10 40 -5 14 -9 34 -11 45 -1 11 -8 46 -14 78 -6
32 -13 85 -14 116 -2 32 -5 62 -8 67 -12 23 0 413 17 534 7 54 18 116 22 135
3 11 6 29 8 40 6 34 14 66 20 85 3 10 8 27 10 37 10 48 62 187 100 268 35 76
139 255 167 290 5 6 32 42 60 80 84 112 257 295 348 365 25 19 50 38 55 43 45
36 129 95 173 121 30 17 75 44 100 59 59 35 279 145 352 175 47 20 266 99 295
106 6 1 30 8 55 15 25 7 52 15 60 17 8 2 51 12 95 23 44 10 97 22 119 25 21 4
42 8 46 11 4 2 27 7 51 9 24 3 54 7 65 9 42 10 161 28 214 32 19 1 55 5 80 9
48 6 106 12 235 22 88 8 489 7 600 -1 97 -6 203 -15 245 -19 19 -3 62 -7 95
-11 33 -3 74 -8 90 -11 45 -8 97 -15 128 -18 15 -2 30 -6 34 -10 3 -3 18 -6
32 -6 14 0 76 -12 136 -26 61 -14 117 -27 126 -29 220 -49 597 -175 754 -252
168 -83 241 -123 345 -192 47 -31 90 -58 95 -60 6 -2 62 -46 125 -97 171 -137
322 -292 438 -448 29 -39 59 -78 65 -86 57 -72 216 -365 271 -500 15 -36 34
-79 42 -97 8 -17 14 -40 14 -50 0 -11 3 -23 8 -27 4 -4 7 -11 7 -14 1 -4 9
-30 18 -58 10 -28 20 -59 22 -70 2 -10 9 -37 15 -59 17 -67 50 -227 55 -270 3
-22 8 -58 11 -80 3 -22 8 -60 10 -85 5 -49 16 -183 18 -215 1 -19 10 -19 336
-19 l335 0 -1 69 c0 66 -10 194 -19 260 -3 17 -7 48 -9 70 -8 68 -16 119 -21
145 -3 14 -7 39 -10 55 -21 123 -88 393 -105 426 -6 10 -8 19 -6 19 6 0 -64
204 -83 245 -5 11 -26 58 -47 105 -20 47 -40 89 -45 94 -5 6 -9 18 -9 28 0 10
-4 18 -9 18 -5 0 -13 10 -17 22 -3 11 -27 58 -53 102 -26 45 -54 92 -62 106
-7 14 -16 27 -19 30 -15 15 -50 71 -50 80 0 5 -4 10 -10 10 -5 0 -10 6 -10 14
0 8 -3 16 -7 18 -10 4 -73 85 -73 92 0 3 -8 14 -17 24 -10 10 -38 43 -62 73
-56 68 -291 303 -349 350 -24 18 -54 42 -65 53 -12 10 -51 39 -87 64 -36 26
-67 49 -70 52 -8 9 -158 110 -163 110 -5 0 -102 62 -122 78 -17 13 -355 182
-355 177 0 -2 -22 7 -49 20 -27 14 -54 25 -60 25 -6 0 -19 5 -29 10 -24 15
-242 90 -242 84 0 -3 -9 0 -21 6 -11 6 -28 13 -37 15 -9 2 -56 15 -104 29 -49
13 -88 22 -88 19 0 -3 -6 -1 -12 4 -11 9 -45 18 -103 29 -5 1 -13 3 -17 4 -5
1 -12 4 -18 5 -5 1 -11 3 -12 5 -4 2 -24 6 -72 14 -21 3 -41 8 -45 10 -3 2
-22 7 -41 10 -19 3 -46 8 -60 11 -34 8 -117 23 -160 29 -19 3 -44 8 -56 10
-12 2 -43 7 -70 10 -27 4 -65 9 -84 11 -19 2 -57 7 -85 11 -27 3 -61 7 -75 9
-14 2 -63 6 -110 10 -47 3 -107 8 -135 11 -59 6 -721 15 -726 10z"/>
</g>
</svg>
