<svg clip-rule="evenodd" fill-rule="evenodd" stroke-linejoin="round" stroke-miterlimit="2" width="1425" height="229" viewBox="0 0 1425 229" xmlns="http://www.w3.org/2000/svg"><g fill-rule="nonzero"><g fill="#29bdfe"><path d="m497.905 66.3c-.4-9.2-2.4-17.2-6-24-3.4-6.8-8.1-12.5-14.1-17.1s-13.2-8-21.6-10.2c-8.2-2.4-17.2-3.6-27-3.6-6 0-12.5.7-19.5 2.1-6.8 1.4-13.2 3.9-19.2 7.5-5.8 3.4-10.6 8.1-14.4 14.1-3.8 5.8-5.7 13.1-5.7 21.9 0 8.6 2.1 15.6 6.3 21s9.7 9.8 16.5 13.2c6.8 3.2 14.6 5.8 23.4 7.8s17.7 3.9 26.7 5.7c9.2 1.8 18.1 4 26.7 6.6 8.8 2.4 16.6 5.8 23.4 10.2 7 4.2 12.6 9.8 16.8 16.8 4.2 6.8 6.3 15.4 6.3 25.8 0 11.2-2.4 20.6-7.2 28.2s-10.9 13.8-18.3 18.6c-7.2 4.8-15.3 8.2-24.3 10.2-8.8 2.2-17.3 3.3-25.5 3.3-12.6 0-24.4-1.4-35.4-4.2-11-2.6-20.6-6.9-28.8-12.9-8.2-6.2-14.7-14.1-19.5-23.7-4.6-9.6-6.8-21.3-6.6-35.1h13.2c-.6 11.8 1.1 21.8 5.1 30 4 8 9.5 14.6 16.5 19.8 7.2 5.2 15.6 9 25.2 11.4 9.6 2.2 19.7 3.3 30.3 3.3 6.4 0 13.2-.8 20.4-2.4 7.4-1.6 14.1-4.3 20.1-8.1 6.2-3.8 11.3-8.8 15.3-15 4.2-6.2 6.3-14 6.3-23.4 0-9-2.1-16.3-6.3-21.9-4.2-5.8-9.8-10.4-16.8-13.8-6.8-3.6-14.6-6.4-23.4-8.4-8.6-2.2-17.5-4.2-26.7-6-9-1.8-17.9-3.9-26.7-6.3s-16.6-5.6-23.4-9.6c-6.8-4.2-12.3-9.5-16.5-15.9-4.2-6.6-6.3-15-6.3-25.2s2.1-18.9 6.3-26.1c4.4-7.4 10-13.3 16.8-17.7 7-4.6 14.8-7.9 23.4-9.9 8.6-2.2 17.1-3.3 25.5-3.3 11.2 0 21.6 1.3 31.2 3.9 9.8 2.4 18.3 6.3 25.5 11.7 7.4 5.2 13.3 12 17.7 20.4s6.9 18.5 7.5 30.3z"/><path d="m741.463 112.2c0 15.6-2.3 30.3-6.9 44.1-4.6 13.6-11.3 25.5-20.1 35.7-8.6 10-19.2 17.9-31.8 23.7s-26.9 8.7-42.9 8.7-30.4-2.9-43.2-8.7c-12.6-5.8-23.3-13.7-32.1-23.7-8.6-10.2-15.2-22.1-19.8-35.7-4.6-13.8-6.9-28.5-6.9-44.1s2.3-30.2 6.9-43.8c4.6-13.8 11.2-25.7 19.8-35.7 8.8-10.2 19.5-18.2 32.1-24 12.8-5.8 27.2-8.7 43.2-8.7s30.3 2.9 42.9 8.7 23.2 13.8 31.8 24c8.8 10 15.5 21.9 20.1 35.7 4.6 13.6 6.9 28.2 6.9 43.8zm-190.5 0c0 13.8 2 26.8 6 39s9.8 22.9 17.4 32.1c7.6 9 16.9 16.2 27.9 21.6s23.5 8.1 37.5 8.1 26.4-2.7 37.2-8.1c11-5.4 20.3-12.6 27.9-21.6 7.6-9.2 13.4-19.9 17.4-32.1s6-25.2 6-39-2-26.8-6-39-9.8-22.8-17.4-31.8c-7.6-9.2-16.9-16.5-27.9-21.9-10.8-5.4-23.2-8.1-37.2-8.1s-26.5 2.7-37.5 8.1-20.3 12.7-27.9 21.9c-7.6 9-13.4 19.6-17.4 31.8s-6 25.2-6 39z"/><path d="m734.322 16.5v-11.4h164.1v11.4h-75.6v202.8h-13.2v-202.8z"/></g><path d="m913.574 5.1h13.2v202.8h121.5v11.4h-134.7v-214.2z" fill="#016490"/><path d="m1151.36 5.1h14.4l84.6 214.2h-14.1l-27-68.7h-102.6l-27.3 68.7h-14.1l86.1-214.2zm53.7 134.1-45.9-121.2h-.6l-47.7 121.2z" fill="#29bdfe"/><path d="m1405.69 66.3c-.4-9.2-2.4-17.2-6-24-3.4-6.8-8.1-12.5-14.1-17.1s-13.2-8-21.6-10.2c-8.2-2.4-17.2-3.6-27-3.6-6 0-12.5.7-19.5 2.1-6.8 1.4-13.2 3.9-19.2 7.5-5.8 3.4-10.6 8.1-14.4 14.1-3.8 5.8-5.7 13.1-5.7 21.9 0 8.6 2.1 15.6 6.3 21s9.7 9.8 16.5 13.2c6.8 3.2 14.6 5.8 23.4 7.8s17.7 3.9 26.7 5.7c9.2 1.8 18.1 4 26.7 6.6 8.8 2.4 16.6 5.8 23.4 10.2 7 4.2 12.6 9.8 16.8 16.8 4.2 6.8 6.3 15.4 6.3 25.8 0 11.2-2.4 20.6-7.2 28.2s-10.9 13.8-18.3 18.6c-7.2 4.8-15.3 8.2-24.3 10.2-8.8 2.2-17.3 3.3-25.5 3.3-12.6 0-24.4-1.4-35.4-4.2-11-2.6-20.6-6.9-28.8-12.9-8.2-6.2-14.7-14.1-19.5-23.7-4.6-9.6-6.8-21.3-6.6-35.1h13.2c-.6 11.8 1.1 21.8 5.1 30 4 8 9.5 14.6 16.5 19.8 7.2 5.2 15.6 9 25.2 11.4 9.6 2.2 19.7 3.3 30.3 3.3 6.4 0 13.2-.8 20.4-2.4 7.4-1.6 14.1-4.3 20.1-8.1 6.2-3.8 11.3-8.8 15.3-15 4.2-6.2 6.3-14 6.3-23.4 0-9-2.1-16.3-6.3-21.9-4.2-5.8-9.8-10.4-16.8-13.8-6.8-3.6-14.6-6.4-23.4-8.4-8.6-2.2-17.5-4.2-26.7-6-9-1.8-17.9-3.9-26.7-6.3s-16.6-5.6-23.4-9.6c-6.8-4.2-12.3-9.5-16.5-15.9-4.2-6.6-6.3-15-6.3-25.2s2.1-18.9 6.3-26.1c4.4-7.4 10-13.3 16.8-17.7 7-4.6 14.8-7.9 23.4-9.9 8.6-2.2 17.1-3.3 25.5-3.3 11.2 0 21.6 1.3 31.2 3.9 9.8 2.4 18.3 6.3 25.5 11.7 7.4 5.2 13.3 12 17.7 20.4s6.9 18.5 7.5 30.3z" fill="#016490"/><path d="m0 45.365v175.007c0 5.72 5.776 9.632 11.087 7.509l69.766-31.755v-194.047l-70.686 28.273c-6.126 2.45-10.166 8.415-10.167 15.013z" fill="#29bdfe"/><path d="m97.024 196.126 97.024 32.341v-194.047l-97.024-32.341z" fill="#29bdfe"/><path d="m279.984 2.665-69.766 31.755v194.047l70.686-28.273c6.128-2.449 10.167-8.414 10.168-15.013v-175.007c0-5.72-5.776-9.632-11.088-7.509z" fill="#29bdfe"/></g></svg>