<?xml version="1.0" encoding="UTF-8" standalone="no"?>
<!-- Created with Inkscape (http://www.inkscape.org/) -->

<svg
   xmlns:dc="http://purl.org/dc/elements/1.1/"
   xmlns:cc="http://creativecommons.org/ns#"
   xmlns:rdf="http://www.w3.org/1999/02/22-rdf-syntax-ns#"
   xmlns:svg="http://www.w3.org/2000/svg"
   xmlns="http://www.w3.org/2000/svg"
   xmlns:xlink="http://www.w3.org/1999/xlink"
   xmlns:sodipodi="http://sodipodi.sourceforge.net/DTD/sodipodi-0.dtd"
   xmlns:inkscape="http://www.inkscape.org/namespaces/inkscape"
   width="120.58959mm"
   height="19.343578mm"
   viewBox="0 0 120.58959 19.343578"
   version="1.1"
   id="svg8"
   inkscape:version="0.92.2 5c3e80d, 2017-08-06"
   sodipodi:docname="sotlas.svg">
  <defs
     id="defs2">
    <clipPath
       clipPathUnits="userSpaceOnUse"
       id="clipPath5259">
      <use
         x="0"
         y="0"
         xlink:href="#g5255"
         id="use5261"
         width="100%"
         height="100%" />
    </clipPath>
  </defs>
  <sodipodi:namedview
     id="base"
     pagecolor="#ffffff"
     bordercolor="#666666"
     borderopacity="1.0"
     inkscape:pageopacity="0.0"
     inkscape:pageshadow="2"
     inkscape:zoom="1.4"
     inkscape:cx="185.55186"
     inkscape:cy="66.811867"
     inkscape:document-units="mm"
     inkscape:current-layer="text12"
     showgrid="false"
     inkscape:window-width="2560"
     inkscape:window-height="1329"
     inkscape:window-x="0"
     inkscape:window-y="1"
     inkscape:window-maximized="1" />
  <metadata
     id="metadata5">
    <rdf:RDF>
      <cc:Work
         rdf:about="">
        <dc:format>image/svg+xml</dc:format>
        <dc:type
           rdf:resource="http://purl.org/dc/dcmitype/StillImage" />
        <dc:title />
      </cc:Work>
    </rdf:RDF>
  </metadata>
  <g
     inkscape:label="Layer 1"
     inkscape:groupmode="layer"
     id="layer1"
     transform="translate(-78.247876,-11.392425)">
    <g
       aria-label="SOTLAS"
       style="font-style:normal;font-weight:normal;font-size:10.58333302px;line-height:1.25;font-family:sans-serif;letter-spacing:0.63764584px;word-spacing:0px;fill:#000000;fill-opacity:1;stroke:none;stroke-width:0.26458332"
       id="text12">
      <path
         d="m 120.40386,17.005825 q -0.0508,-1.1684 -0.508,-2.032 -0.4318,-0.8636 -1.1938,-1.4478 -0.762,-0.5842 -1.8288,-0.8636 -1.0414,-0.3048 -2.286,-0.3048 -0.762,0 -1.651,0.1778 -0.8636,0.1778 -1.6256,0.635 -0.7366,0.4318 -1.2192,1.1938 -0.4826,0.7366 -0.4826,1.8542 0,1.0922 0.5334,1.778 0.5334,0.6858 1.397,1.1176 0.8636,0.4064 1.9812,0.6604 1.1176,0.254 2.2606,0.4826 1.1684,0.2286 2.2606,0.5588 1.1176,0.3048 1.9812,0.8636 0.889,0.5334 1.4224,1.4224 0.5334,0.8636 0.5334,2.1844 0,1.4224 -0.6096,2.3876 -0.6096,0.9652 -1.5494,1.5748 -0.9144,0.6096 -2.0574,0.8636 -1.1176,0.2794 -2.159,0.2794 -1.6002,0 -2.9972,-0.3556 -1.397,-0.3302 -2.4384,-1.0922 -1.0414,-0.7874 -1.651,-2.0066 -0.5842,-1.2192 -0.5588,-2.9718 h 1.1176 q -0.0762,1.4986 0.4318,2.54 0.508,1.016 1.397,1.6764 0.9144,0.6604 2.1336,0.9652 1.2192,0.2794 2.5654,0.2794 0.8128,0 1.7272,-0.2032 0.9398,-0.2032 1.7018,-0.6858 0.7874,-0.4826 1.2954,-1.27 0.5334,-0.7874 0.5334,-1.9812 0,-1.143 -0.5334,-1.8542 -0.5334,-0.7366 -1.4224,-1.1684 -0.8636,-0.4572 -1.9812,-0.7112 -1.0922,-0.2794 -2.2606,-0.508 -1.143,-0.2286 -2.2606,-0.5334 -1.1176,-0.3048 -1.9812,-0.8128 -0.8636,-0.5334 -1.397,-1.3462 -0.5334,-0.8382 -0.5334,-2.1336 0,-1.2954 0.5334,-2.2098 0.5588,-0.9398 1.4224,-1.4986 0.889,-0.5842 1.9812,-0.8382 1.0922,-0.2794 2.159,-0.2794 1.4224,0 2.6416,0.3302 1.2446,0.3048 2.159,0.9906 0.9398,0.6604 1.4986,1.7272 0.5588,1.0668 0.635,2.5654 z"
         style="fill:#29bdfe;fill-opacity:1"
         id="path873"
         inkscape:connector-curvature="0" />
      <path
         d="m 141.02509,20.892025 q 0,1.9812 -0.5842,3.7338 -0.5842,1.7272 -1.7018,3.0226 -1.0922,1.27 -2.6924,2.0066 -1.6002,0.7366 -3.6322,0.7366 -2.032,0 -3.6576,-0.7366 -1.6002,-0.7366 -2.7178,-2.0066 -1.0922,-1.2954 -1.6764,-3.0226 -0.5842,-1.7526 -0.5842,-3.7338 0,-1.9812 0.5842,-3.7084 0.5842,-1.7526 1.6764,-3.0226 1.1176,-1.2954 2.7178,-2.032 1.6256,-0.7366 3.6576,-0.7366 2.032,0 3.6322,0.7366 1.6002,0.7366 2.6924,2.032 1.1176,1.27 1.7018,3.0226 0.5842,1.7272 0.5842,3.7084 z m -16.129,0 q 0,1.7526 0.508,3.302 0.508,1.5494 1.4732,2.7178 0.9652,1.143 2.3622,1.8288 1.397,0.6858 3.175,0.6858 1.778,0 3.1496,-0.6858 1.397,-0.6858 2.3622,-1.8288 0.9652,-1.1684 1.4732,-2.7178 0.508,-1.5494 0.508,-3.302 0,-1.7526 -0.508,-3.302 -0.508,-1.5494 -1.4732,-2.6924 -0.9652,-1.1684 -2.3622,-1.8542 -1.3716,-0.6858 -3.1496,-0.6858 -1.778,0 -3.175,0.6858 -1.397,0.6858 -2.3622,1.8542 -0.9652,1.143 -1.4732,2.6924 -0.508,1.5494 -0.508,3.302 z"
         style="fill:#29bdfe;fill-opacity:1"
         id="path875"
         inkscape:connector-curvature="0" />
      <path
         d="m 140.42045,12.789425 v -0.9652 h 13.8938 v 0.9652 h -6.4008 v 17.1704 h -1.1176 v -17.1704 z"
         style="fill:#29bdfe;fill-opacity:1"
         id="path877"
         inkscape:connector-curvature="0" />
      <path
         d="m 155.59715,11.824225 h 1.1176 v 17.1704 h 10.287 v 0.9652 h -11.4046 z"
         style="letter-spacing:2.04787493px;fill:#016490;fill-opacity:1"
         id="path879"
         inkscape:connector-curvature="0" />
      <path
         d="m 175.72983,11.824225 h 1.2192 l 7.1628,18.1356 h -1.1938 l -2.286,-5.8166 h -8.6868 l -2.3114,5.8166 h -1.1938 z m 4.5466,11.3538 -3.8862,-10.2616 h -0.0508 l -4.0386,10.2616 z"
         style="fill:#29bdfe;fill-opacity:1"
         id="path881"
         inkscape:connector-curvature="0" />
      <path
         d="m 197.26267,17.005825 q -0.0508,-1.1684 -0.508,-2.032 -0.4318,-0.8636 -1.1938,-1.4478 -0.76199,-0.5842 -1.82879,-0.8636 -1.0414,-0.3048 -2.286,-0.3048 -0.762,0 -1.651,0.1778 -0.8636,0.1778 -1.6256,0.635 -0.7366,0.4318 -1.2192,1.1938 -0.4826,0.7366 -0.4826,1.8542 0,1.0922 0.5334,1.778 0.5334,0.6858 1.397,1.1176 0.8636,0.4064 1.9812,0.6604 1.1176,0.254 2.2606,0.4826 1.1684,0.2286 2.2606,0.5588 1.11759,0.3048 1.98119,0.8636 0.889,0.5334 1.4224,1.4224 0.5334,0.8636 0.5334,2.1844 0,1.4224 -0.6096,2.3876 -0.6096,0.9652 -1.5494,1.5748 -0.9144,0.6096 -2.05739,0.8636 -1.1176,0.2794 -2.159,0.2794 -1.6002,0 -2.9972,-0.3556 -1.397,-0.3302 -2.4384,-1.0922 -1.0414,-0.7874 -1.651,-2.0066 -0.5842,-1.2192 -0.5588,-2.9718 h 1.1176 q -0.0762,1.4986 0.4318,2.54 0.508,1.016 1.397,1.6764 0.9144,0.6604 2.1336,0.9652 1.2192,0.2794 2.5654,0.2794 0.8128,0 1.7272,-0.2032 0.93979,-0.2032 1.70179,-0.6858 0.7874,-0.4826 1.2954,-1.27 0.5334,-0.7874 0.5334,-1.9812 0,-1.143 -0.5334,-1.8542 -0.5334,-0.7366 -1.4224,-1.1684 -0.86359,-0.4572 -1.98119,-0.7112 -1.0922,-0.2794 -2.2606,-0.508 -1.143,-0.2286 -2.2606,-0.5334 -1.1176,-0.3048 -1.9812,-0.8128 -0.8636,-0.5334 -1.397,-1.3462 -0.5334,-0.8382 -0.5334,-2.1336 0,-1.2954 0.5334,-2.2098 0.5588,-0.9398 1.4224,-1.4986 0.889,-0.5842 1.9812,-0.8382 1.0922,-0.2794 2.159,-0.2794 1.4224,0 2.6416,0.3302 1.24459,0.3048 2.15899,0.9906 0.9398,0.6604 1.4986,1.7272 0.5588,1.0668 0.635,2.5654 z"
         style="font-style:normal;font-variant:normal;font-weight:200;font-stretch:normal;font-size:25.39999962px;font-family:'Helvetica Neue';-inkscape-font-specification:'Helvetica Neue Ultra-Light';letter-spacing:0px;stroke-width:0.26458332;fill:#016490;fill-opacity:1"
         id="path883"
         inkscape:connector-curvature="0" />
      <g
         id="g5255"
         inkscape:label="Clip">
        <path
           inkscape:connector-curvature="0"
           style="fill:#29bdfe;fill-opacity:1;stroke-width:0.01132015"
           d="M 78.247876,15.233355 V 30.05059 c 0,0.484324 0.48903,0.815479 0.938699,0.635783 l 5.906871,-2.688598 V 11.568408 l -5.98474,2.39381 a 1.3693707,1.3693707 0 0 0 -0.86083,1.271137 z"
           id="path3324" />
        <path
           inkscape:connector-curvature="0"
           style="fill:#29bdfe;fill-opacity:1;stroke-width:0.01132015"
           d="m 86.46256,27.997775 8.214684,2.738229 V 14.306636 L 86.46256,11.568408 Z"
           id="path3322" />
        <path
           inkscape:connector-curvature="0"
           style="fill:#29bdfe;fill-opacity:1;stroke-width:0.01132015"
           d="m 101.95323,11.618038 -5.906873,2.688598 v 16.429368 l 5.984743,-2.393811 a 1.3689428,1.3689428 0 0 0 0.86083,-1.271136 V 12.253821 c 0,-0.484324 -0.48903,-0.815479 -0.9387,-0.635783 z"
           id="path2" />
      </g>
    </g>
  </g>
</svg>
